# xmcd
#
# Track frame offsets:
#	150
#	15710
#	32022
#	53542
#	79350
#	109590
#	139862
#
# Disc length: 2164 seconds
#
# Revision: 1
# Processed by: cddbd v1.5.1PL0 Copyright (c) Steve Scherf et al.
# Submitted via: audiograbber 1.83.01
#
DISCID=51087207
DTITLE=Mis-Teeq - One Night Stand
DYEAR=2002
DGENRE=RnB/2Step
TTITLE0=One Night Stand (StarGate Radio Edit)
TTITLE1=One Night Stand (Sunship Radio Edit)
TTITLE2=One Night Stand (Sunship Vocal Mix)
TTITLE3=One Night Stand (Agent X Dub)
TTITLE4=One Night Stand (Dubaholics 4 To Da Floor)
TTITLE5=One Night Stand (Dubaholics Dub)
TTITLE6=One Night Stand (Blacksmith R&B Rub)
EXTD=
EXTT0=
EXTT1=
EXTT2=
EXTT3=
EXTT4=
EXTT5=
EXTT6=
PLAYORDER=
